<svg width="232" height="37" viewBox="0 0 232 37" fill="none" xmlns="http://www.w3.org/2000/svg">
<path d="M56.2988 22.4854V30H51.9043V8.67188H60.2246C61.8262 8.67188 63.2324 8.96484 64.4434 9.55078C65.6641 10.1367 66.6016 10.9717 67.2559 12.0557C67.9102 13.1299 68.2373 14.3555 68.2373 15.7324C68.2373 17.8223 67.5195 19.4727 66.084 20.6836C64.6582 21.8848 62.6807 22.4854 60.1514 22.4854H56.2988ZM56.2988 18.9258H60.2246C61.3867 18.9258 62.2705 18.6523 62.876 18.1055C63.4912 17.5586 63.7988 16.7773 63.7988 15.7617C63.7988 14.7168 63.4912 13.8721 62.876 13.2275C62.2607 12.583 61.4111 12.251 60.3271 12.2314H56.2988V18.9258Z" fill="white"/>
<path d="M79.8975 18.1201C79.3213 18.042 78.8135 18.0029 78.374 18.0029C76.7725 18.0029 75.7227 18.5449 75.2246 19.6289V30H70.9912V14.1504H74.9902L75.1074 16.04C75.957 14.585 77.1338 13.8574 78.6377 13.8574C79.1064 13.8574 79.5459 13.9209 79.9561 14.0479L79.8975 18.1201Z" fill="white"/>
<path d="M88.9502 30.293C86.626 30.293 84.7314 29.5801 83.2666 28.1543C81.8115 26.7285 81.084 24.8291 81.084 22.4561V22.0459C81.084 20.4541 81.3916 19.0332 82.0068 17.7832C82.6221 16.5234 83.4912 15.5566 84.6143 14.8828C85.7471 14.1992 87.0361 13.8574 88.4814 13.8574C90.6494 13.8574 92.3535 14.541 93.5938 15.9082C94.8438 17.2754 95.4688 19.2139 95.4688 21.7236V23.4521H85.376C85.5127 24.4873 85.9229 25.3174 86.6064 25.9424C87.2998 26.5674 88.1738 26.8799 89.2285 26.8799C90.8594 26.8799 92.1338 26.2891 93.0518 25.1074L95.1318 27.4365C94.4971 28.335 93.6377 29.0381 92.5537 29.5459C91.4697 30.0439 90.2686 30.293 88.9502 30.293ZM88.4668 17.2852C87.627 17.2852 86.9434 17.5684 86.416 18.1348C85.8984 18.7012 85.5664 19.5117 85.4199 20.5664H91.3086V20.2295C91.2891 19.292 91.0352 18.5693 90.5469 18.0615C90.0586 17.5439 89.3652 17.2852 88.4668 17.2852Z" fill="white"/>
<path d="M97.2266 21.958C97.2266 19.4873 97.7783 17.5195 98.8818 16.0547C99.9951 14.5898 101.514 13.8574 103.438 13.8574C104.98 13.8574 106.255 14.4336 107.261 15.5859V7.5H111.509V30H107.686L107.48 28.3154C106.426 29.6338 105.068 30.293 103.408 30.293C101.543 30.293 100.044 29.5605 98.9111 28.0957C97.7881 26.6211 97.2266 24.5752 97.2266 21.958ZM101.46 22.2656C101.46 23.75 101.719 24.8877 102.236 25.6787C102.754 26.4697 103.506 26.8652 104.492 26.8652C105.801 26.8652 106.724 26.3135 107.261 25.21V18.9551C106.733 17.8516 105.82 17.2998 104.521 17.2998C102.48 17.2998 101.46 18.9551 101.46 22.2656Z" fill="white"/>
<path d="M119.258 30H115.01V14.1504H119.258V30ZM114.761 10.0488C114.761 9.41406 114.971 8.8916 115.391 8.48145C115.82 8.07129 116.401 7.86621 117.134 7.86621C117.856 7.86621 118.433 8.07129 118.862 8.48145C119.292 8.8916 119.507 9.41406 119.507 10.0488C119.507 10.6934 119.287 11.2207 118.848 11.6309C118.418 12.041 117.847 12.2461 117.134 12.2461C116.421 12.2461 115.845 12.041 115.405 11.6309C114.976 11.2207 114.761 10.6934 114.761 10.0488Z" fill="white"/>
<path d="M129.351 26.8799C130.132 26.8799 130.767 26.665 131.255 26.2354C131.743 25.8057 131.997 25.2344 132.017 24.5215H135.986C135.977 25.5957 135.684 26.582 135.107 27.4805C134.531 28.3691 133.74 29.0625 132.734 29.5605C131.738 30.0488 130.635 30.293 129.424 30.293C127.158 30.293 125.371 29.5752 124.062 28.1396C122.754 26.6943 122.1 24.7021 122.1 22.1631V21.8848C122.1 19.4434 122.749 17.4951 124.048 16.04C125.347 14.585 127.129 13.8574 129.395 13.8574C131.377 13.8574 132.964 14.4238 134.155 15.5566C135.356 16.6797 135.967 18.1787 135.986 20.0537H132.017C131.997 19.2334 131.743 18.5693 131.255 18.0615C130.767 17.5439 130.122 17.2852 129.321 17.2852C128.335 17.2852 127.588 17.6465 127.08 18.3691C126.582 19.082 126.333 20.2441 126.333 21.8555V22.2949C126.333 23.9258 126.582 25.0977 127.08 25.8105C127.578 26.5234 128.335 26.8799 129.351 26.8799Z" fill="white"/>
<path d="M143.472 10.2539V14.1504H146.182V17.2559H143.472V25.166C143.472 25.752 143.584 26.1719 143.809 26.4258C144.033 26.6797 144.463 26.8066 145.098 26.8066C145.566 26.8066 145.981 26.7725 146.343 26.7041V29.9121C145.513 30.166 144.658 30.293 143.779 30.293C140.811 30.293 139.297 28.7939 139.238 25.7959V17.2559H136.924V14.1504H139.238V10.2539H143.472Z" fill="white"/>
<path d="M167.349 24.4043C167.349 23.5742 167.056 22.9395 166.47 22.5C165.884 22.0508 164.829 21.582 163.306 21.0938C161.782 20.5957 160.576 20.1074 159.688 19.6289C157.266 18.3203 156.055 16.5576 156.055 14.3408C156.055 13.1885 156.377 12.1631 157.021 11.2646C157.676 10.3564 158.608 9.64844 159.819 9.14062C161.04 8.63281 162.407 8.37891 163.921 8.37891C165.444 8.37891 166.802 8.65723 167.993 9.21387C169.185 9.76074 170.107 10.5371 170.762 11.543C171.426 12.5488 171.758 13.6914 171.758 14.9707H167.363C167.363 13.9941 167.056 13.2373 166.44 12.7002C165.825 12.1533 164.961 11.8799 163.848 11.8799C162.773 11.8799 161.938 12.1094 161.343 12.5684C160.747 13.0176 160.449 13.6133 160.449 14.3555C160.449 15.0488 160.796 15.6299 161.489 16.0986C162.192 16.5674 163.223 17.0068 164.58 17.417C167.08 18.1689 168.901 19.1016 170.044 20.2148C171.187 21.3281 171.758 22.7148 171.758 24.375C171.758 26.2207 171.06 27.6709 169.663 28.7256C168.267 29.7705 166.387 30.293 164.023 30.293C162.383 30.293 160.889 29.9951 159.541 29.3994C158.193 28.7939 157.163 27.9688 156.45 26.9238C155.747 25.8789 155.396 24.668 155.396 23.291H159.805C159.805 25.6445 161.211 26.8213 164.023 26.8213C165.068 26.8213 165.884 26.6113 166.47 26.1914C167.056 25.7617 167.349 25.166 167.349 24.4043Z" fill="white"/>
<path d="M179.536 10.2539V14.1504H182.246V17.2559H179.536V25.166C179.536 25.752 179.648 26.1719 179.873 26.4258C180.098 26.6797 180.527 26.8066 181.162 26.8066C181.631 26.8066 182.046 26.7725 182.407 26.7041V29.9121C181.577 30.166 180.723 30.293 179.844 30.293C176.875 30.293 175.361 28.7939 175.303 25.7959V17.2559H172.988V14.1504H175.303V10.2539H179.536Z" fill="white"/>
<path d="M183.506 21.9287C183.506 20.3564 183.809 18.9551 184.414 17.7246C185.02 16.4941 185.889 15.542 187.021 14.8682C188.164 14.1943 189.487 13.8574 190.991 13.8574C193.13 13.8574 194.873 14.5117 196.221 15.8203C197.578 17.1289 198.335 18.9062 198.491 21.1523L198.521 22.2363C198.521 24.668 197.842 26.6211 196.484 28.0957C195.127 29.5605 193.306 30.293 191.021 30.293C188.735 30.293 186.909 29.5605 185.542 28.0957C184.185 26.6309 183.506 24.6387 183.506 22.1191V21.9287ZM187.739 22.2363C187.739 23.7402 188.022 24.8926 188.589 25.6934C189.155 26.4844 189.966 26.8799 191.021 26.8799C192.046 26.8799 192.847 26.4893 193.423 25.708C193.999 24.917 194.287 23.6572 194.287 21.9287C194.287 20.4541 193.999 19.3115 193.423 18.501C192.847 17.6904 192.036 17.2852 190.991 17.2852C189.956 17.2852 189.155 17.6904 188.589 18.501C188.022 19.3018 187.739 20.5469 187.739 22.2363Z" fill="white"/>
<path d="M207.72 26.8799C208.501 26.8799 209.136 26.665 209.624 26.2354C210.112 25.8057 210.366 25.2344 210.386 24.5215H214.355C214.346 25.5957 214.053 26.582 213.477 27.4805C212.9 28.3691 212.109 29.0625 211.104 29.5605C210.107 30.0488 209.004 30.293 207.793 30.293C205.527 30.293 203.74 29.5752 202.432 28.1396C201.123 26.6943 200.469 24.7021 200.469 22.1631V21.8848C200.469 19.4434 201.118 17.4951 202.417 16.04C203.716 14.585 205.498 13.8574 207.764 13.8574C209.746 13.8574 211.333 14.4238 212.524 15.5566C213.726 16.6797 214.336 18.1787 214.355 20.0537H210.386C210.366 19.2334 210.112 18.5693 209.624 18.0615C209.136 17.5439 208.491 17.2852 207.69 17.2852C206.704 17.2852 205.957 17.6465 205.449 18.3691C204.951 19.082 204.702 20.2441 204.702 21.8555V22.2949C204.702 23.9258 204.951 25.0977 205.449 25.8105C205.947 26.5234 206.704 26.8799 207.72 26.8799Z" fill="white"/>
<path d="M222.529 23.6426L221.006 25.166V30H216.772V7.5H221.006V19.9658L221.826 18.9111L225.884 14.1504H230.967L225.239 20.7568L231.465 30H226.602L222.529 23.6426Z" fill="white"/>
<path d="M19.5664 17.0017L14.329 11.5612L1.73206 24.3638L0 22.6608L14.3472 8.07876L19.6357 13.5715L28.7332 4.85989L26.1267 2.25443H32.9322V9.05778L30.4507 6.57743L19.5664 17.0017ZM6.02698 34.7468H14.2257V23.2074H6.02698V34.7468ZM17.4141 34.7468H25.6129V19.5634H17.4141V34.7468ZM28.8013 11.9718V34.7468H37V11.9718H28.8013Z" fill="white"/>
</svg>
